<mxfile host="65bd71144e">
    <diagram id="HIP3nbAZw_EuaXWnEj3U" name="Page-1">
        <mxGraphModel dx="866" dy="759" grid="1" gridSize="10" guides="1" tooltips="1" connect="1" arrows="1" fold="1" page="1" pageScale="1" pageWidth="850" pageHeight="1100" background="#ffffff" math="0" shadow="0">
            <root>
                <mxCell id="0"/>
                <mxCell id="1" parent="0"/>
                <mxCell id="7" value="http://ics2o.mths.ca" style="swimlane;whiteSpace=wrap;html=1;" parent="1" vertex="1">
                    <mxGeometry x="40" y="40" width="760" height="480" as="geometry"/>
                </mxCell>
                <mxCell id="8" value="Guess That Number Game" style="whiteSpace=wrap;html=1;fillColor=#b0e3e6;strokeColor=#0e8088;fontColor=#000000;fontSize=25;" vertex="1" parent="7">
                    <mxGeometry x="10" y="20" width="740" height="60" as="geometry"/>
                </mxCell>
                <mxCell id="9" value="Try to the guess the random number!" style="text;html=1;align=center;verticalAlign=middle;resizable=0;points=[];autosize=1;strokeColor=none;fillColor=none;fontSize=25;fontColor=#000000;" vertex="1" parent="7">
                    <mxGeometry x="10" y="90" width="440" height="40" as="geometry"/>
                </mxCell>
                <mxCell id="10" value="Pick a number 1-6:" style="text;html=1;align=center;verticalAlign=middle;resizable=0;points=[];autosize=1;strokeColor=none;fillColor=none;fontSize=25;fontColor=#000000;" vertex="1" parent="7">
                    <mxGeometry x="10" y="160" width="240" height="40" as="geometry"/>
                </mxCell>
                <mxCell id="11" value="" style="rounded=1;whiteSpace=wrap;html=1;fontSize=25;labelBackgroundColor=#FFFFFF;noLabel=1;fillColor=#eeeeee;strokeColor=#36393d;" vertex="1" parent="7">
                    <mxGeometry x="20" y="200" width="220" height="30" as="geometry"/>
                </mxCell>
                <mxCell id="12" value="" style="shape=image;verticalLabelPosition=bottom;labelBackgroundColor=default;verticalAlign=top;aspect=fixed;imageAspect=0;image=data:image/jpeg,/9j/4AAQSkZJRgABAQAAAQABAAD/2wCEAAkGBxISEBUSEBIVFRUVFRUPFRUVGBcVFRcQFRcWFhUVFRUYHSggGBolGxUVITEhJSkrLi4uFx8zODMtNygtLisBCgoKDg0OGRAQGi0lIB0tKy03LS8tLS0tLS0tKy0tNysvLS0tLSsvKy0tKzAvLS0rLS0uLSstLS0rKy0rLS0tLf/AABEIAKAAoAMBEQACEQEDEQH/xAAcAAABBAMBAAAAAAAAAAAAAAAAAQMFBgIECAf/xABBEAABAwIABwwIBgICAwAAAAABAAIDBBEFEiExc7HRBgcVNUFRUlRxkZOyExYiJDRTcpIyM2GBocEUQiWCI9Lw/8QAGgEBAAMBAQEAAAAAAAAAAAAAAAIDBAEFBv/EADYRAAIBAwAIBQMCBQUBAAAAAAABAgMEEQUSExQhMTJRFUFSYXEiM5E0oUJygbHwI1TR4fEG/9oADAMBAAIRAxEAPwDxKnp3yOxY2Oe7PZoLjbsCA2uBanq83hv2IA4FqerzeG/YgDgWp6vN4b9iAOBanq83hv2IA4FqerzeG/YgDgWp6vN4b9iAOBanq83hv2IA4FqerzeG/YgDgWp6vN4b9iAOBanq83hv2IA4FqerzeG/YgDgWp6vN4b9iAOBanq83hv2IA4EqerzeG/YgDgWp6vN4b9iAOBanq83hv2IA4FqerzeG/YgDgWp6vN4b9iA1ainfG7FkY5js9nAtNj+hQHoO8Jxw3Qy6ggOmrIBQEApCAxQBioBHOAFzYAZSeSwzoCL9ZqLrEXeo6y7luwqekQ7p6LrEXemsu42FT0ies9F1iLvTWXcbCp6Q9ZqLrEXemsu42FT0i+s9F1iLvTWXcbCp6TZocMU0zsWGVj3AXs0i9uey6pJkZUpxWWjeXSAlkAWQGQCACEBjkQHMm/3xy/RQ+VALvB8cs0MuoIDpyyAVACASyALIDUwwPd5dG/ylcfInT6kefbk8D08tK18sYc7GcLknMLWzFULGD1ZylrYRKnc9SfJb3u2pwGZdzB25+l+SO921cJLJj6v0vyR3u2od4mJwDS/KHedq4SWTX3M0zI8L4jBitERIHaMqnT5ma6+0ejK88sLIAsgFQAgEsgOYt/vjl+ih8qAXeD45ZoZdQQHTqAQlAIgFugFQGnhg+7y6N/lK4+ROn1Io+4x3ubfqd/Sz+R60l9RMY6EsFfw7unjjY4Qva6TMAMoB5SVw8a/0vSowapSTkS9FKXxMc7O5jXHtIBK4etbzc6UZPm0n+w7dC4jMB8cnRHUrKfMy3X2z0IK88sVACAQlAIEBldAcxb/AJx0/RQ+VAG8HxyzQy6ggOnCgEsgFsgEAQGSA0sMD3eXRv1FcfInT6kUbcb8G36nf0s57D6iXcuEkVvdbQxNpXubGwOu32gADlcL5Vw8LTVtRhaynGCTyuOOPMmsGfkR6NnlCHrWn2Kf8q/sPPchoI3c/wAcHRHUrKfMy3X2z0OyvPLMggEKASyALIBQEBzHv+cdP0UPlQBvCcct0MuoIDpwIBUAIAQCIDUwv8PLo3+Urj5E6fUiibjj7m36nf0sx7PmTC4SIPdmfc39rPMEPI07+jl8r+5IYNd/4I9GzyhDfafYp/yr+xnK5dL2aO5vjc6I6lOnzM119o9GV55Yl0ABAKgBACA5h3++OX6KHyoBd4Tjhuhl1BAdNoBQgAoBEAIDUwv8PLo3+Urj5E6fUih7j/hG/U7+llPb8yYcUAzMwOFnNDhzEXHcV0jOEZrElle5gTbIMgGQDYgSSWEMucgGNzXG50R1KdPqM919o9FV55YIAQChABQCIDmPf745foofKgF3g+OWaGXUEB07ZACAS6A8ww9hWufhKeCnqTG2MAgWFrYrb8hN7laIQjq5aNEIJoZPCvXv4H/qp6kexLZx7DcvCbgWurQQRYjJlBz/AOqakex1QS4kdDgysjbisqQ0cwJtqUdhT7Fu0l3A09b1o952Luwh2G0l3GpHVUdi+oLgTiix5e5NhT7GS7uKkIrVfmT/AKu1nWRz53bFzZU/SYd7uPWxPV2s6yO92xNlT9I3uv62FPgGrjk9KyoaJLYuNlJtzZQuqlBckQldVpLDkbphwl1wf/f9VLZx7FW2n3MXx4SAJ/zBkBPd/wBV3Zx7HNvLuWHcBhGWelLpn47hI5oJtewtnss9WKT4GyhJyjxLMqi4S6ALIDmPf846foofKgDeD45ZoZdQQHTqAQlAJdAeW1B/5qq+keVi1Q6UaqfSjflkU0iY1Gx7/wAIvbl5O9Zbu/t7RJ1pYz5c2/6HVFy5GFTSSNFyMnOMqptdL2lzPZwl9XZrGTrhJcTSL16hAj8KuuG/UFxmK+6F8nol8g7BqVaPPbGZpw0EuNgM5KTlGEXKTwkchGdSShBZb8iPGGob/iPaQbLGtKW2cZfzjgb3oa8Szqr4ysm4JQRcG98twvQjiSyuTPKnmLcWsNGErvZd9J1KWCCZlvYfCO0rv6WOt1Hp2/SW8lUmgLoBboDmPf8AOOn6KHyoA3g+OWaGXUEB04QgCyALIDymsyYZqvpHlYtVPpRqp9KNiV6tRMzmqh6JrGkg53ci8ejo+cr+pc1kmsYj54/oTcvpSRngRxLnA/gxTjXzXWL/AOkjTjTpuPCprLGOeCVLPHsQ0jsptmy27F9NHOFnngpNGtP4fqCMxX3Qvk9GkdkHYNS5FHlzZHYRpDKGi9mh2M4HlH6LJe2srhRinwTy/c2aPvIWrnNrLawvYxrpIgxzTi5BYNyXvyZEuqltClKEscuXmLKld1K8KkNbi+rjj34mOCY3CFodkOU2/TkTRkJwtoqf+IaZqU6l5N0+K4fkfqXWY7sOpbzzEP72A90dpXf0sVbqPUt+kuFlSaAsgABAcx7/AJx0/RQ+VAG8Hxy3Qy6ggOnEAqAEB5HhV1sMVXYPKxa6XSjVT6UOPkVpI2KembielmNmZgBncV417pCu6+6Wccz82+UV/wAlkYrGtIZrMJFzcRgDGcwzntKnZ6HjSqbevJ1Knd8l8I5KeeC5EeV65A1a3/X6guMxX3Qvk9Bc7UNS6jx5M156trHNab+3kB5P3VFa5hSnCEv4+RooWdSvTnUhjEOL7/0G6ihjfcublP8AtyqNaxoVW3KPF+fmSt9J3NBJQn9K8vI18DzEsIcb4ri0H9Fm0TUnKlJSedV4TNmnKMIV4ygsa0cte45VP9k9h1L02eOje3r/AIR+ld/Sx1uo9O36S4qk0AgBAcxb/fHL9FD5UAbwnHDNDLqCA6bugFBQClAePYbd/wAvU9jfKxbKXSjVDpQFyuJEg3CrcRrXRNdiiwue8r56WhKu2nVhXcXN5eF+xbtFjGA4Tj6uzvTwe6/3cvwc112It7uXMvfSwkis0q134fqCMxX3QvkvuPkHYFLB4reRishbI2xyEZQRnBWe6tYXENWXDHJ9jXZXs7Sprx4p8GnyaNR9PKRiumyfoMtljdndSWpKtw+OJvjpCyhLXhb/AFfPAciAY3FbmC3UKMKEFCHJHm3NxUuKjqVOb/zAzPJcHsOpWlKRL72B90fpXf0slbqPSt+kuQVJeBQGN0BzHv8AfHL9FD5UAu8HxyzQy6ggOj8K4QbAwPcCbkNAHP8AuqK9dUY6zLKdNzeERnrS35Mn8LL4jH0st3Z90HrS35Mn8J4jH0sbs+6KPhKifJWy1LRZslrNINxYNGXuV8NLQisajLo0sLGRP8GTm/g7FPxmn6Gd2fuYmhk5v4OxPGafoY2fuMSUzxzHsuurTFN/wMsjbOSzkwNO88mtd8Xh6WT3R90Ny0Dzb9DfMVzxaHpZnuNHTqxSUkT5wmfllS8Yp+hmHwKp61+5icJH5ZTxin6WPAqnrX7jUuEja+J+18qLS0G8arKq+iKlGm6jkng1zhQ/Kd/OxWeIw9LPMwYuwiSCPROyi3LsTxGHpYwSO5LdAKOExvikcS8vu0ZLG2TKqal5GTzhmmnWUFjBOevkfV5f4UN5XYs3pdmI7d9GM8Ev8Lm9LsN6XYtFBVCWJkrbgPaHAHPl51ojLWWTRGWssnNO/wB8cv0UPlUiQu8HxyzQy6ggPft2X5LdINRXn6R+2vk02vU/glGnIOwLO5YKwuouodwLjKOuxgMZRdRjAzO7IewrPOTZOKKvgI+y/wCpXUuRuZJF6m2dSGnPUHImojZco5JpDb3LjZJIj2/GQqyj1oqu/wBPMtF16B84Yl65k5kwMi5k5rDb5VzJxsht0b/dpOwa1FlM3wLTuX+Dh0YXoUuhG2l0I523/OOn6KHyqwsDeD45ZoZdQQHvu7P8lukGorz9I/bXyabXqfwSbcw7BqWJkAUGzp5lvgYbknDm05Igge2OR7TbHnJ/CCM4C93R1vGnhz6pLguy/wCyDZ6TTn2G/S3UF4E+pk0YzZj2FUSLEVjAp9h/1K+n0m1I2XORsuUSn0tA6qlneZ5GBshY0NJtkz8v6L6KtdRs6VGCpxk3HLyj5ujazvKtWbqSilLHBkrgzA3oX4/p5H5CLONxl5V5l3pHeIamzjHjzXM9W00a7epr7SUvZkoV5x6ZpxfFxK2j1oouv08ywyvW5s+ZbK5hyrkkmZSQuLMYY8jxnDOYIuWT1bGnSpUJ3dZZw8Jd2albgJ8TfSUkkpkaQcVzrhw5c6KWeZZQ0tTry2d1GKg/NLkT0UhLQXCxIBLeZ3KFA8SokpNReVnn7Efugd7vJ2BcKpci3bl/g4foC9Gl0I3UuhHO+/5x0/RQ+VWFgbwnHLdDLqCA993Y/kt0g1FefpH7a+TTa9T+CUbmHYNSwzIlW3dYdMLWU8b2slqPZ9I42bHFmc8nn5lssLbaN1JLKj5d32Itlb3Vy0ceDGU1LNG8tkY4hrgXON/aeVus415XTqVYtZT/APDj5F9wVhCKaMehla8NDWuxTezrZivEr0p05fWsZJxNmU5D2FZJFiKvgk+y/wCpXw5G+KH3rhdjgVek3MGzvTSuyuLg2MloueU85XvV9NRytjTXBJZksvh5Hg0NCS47ao+LbwnhcTGkdJS1TIDIXxSj2cbKWldrKle2krhRUZw545MjRdWxu40HJyhPlnmizOK+fPozSgPvcSupdaM91+nmT862s+YkUurjkfhGRkb8TGYA5wziMC5xf1K7/CfRUp0qWjIVKkdbDeF5N+45hLBjqeMzQTSXZYuDzjBw5UTzwZXaX0LyorevTjiXJpYwydoqn0kTH5sZodb9eVQaweFc0djWlT9LwaeHvyH9iMolyLjuY+Dh0YXoUuhG6l0I523++OX6KHyqwsDeE44boZdQQHvm7H8lv1jUV5+kftr5NNr1P4JRmYdg1Lz5siadfgqCYgzRMkIFgXC9hzKVOvUprEJNDBVd225mP/F90pW+kx2fltGNi39r9l6Fhey2v+rPhh8yLRZsGYPigYBFG2O4BcGi13W5V5letOpL6nknFD8pyHsKyyLEVjBP4XdqvhyN8B2pZjNLbkXBFxnF+UKUJaslLGcFk460HHOMlZo8IT0wMc8UklicWRvtXH6r3a9rbXjVWhOMc84vhg8Chd3NmnSrwlLjwa4mdFDLPUiolYY2MFo2n8RPOVC4q0bW1dtSlrSlza5FlvSrXV0rmrHVjHknzJ2V68RI91s1KY+9R9qsp9aKLr9PMnpXLYz5dsruFqaRk7aqFuOQ3EkZylvOF1NNYZ61lXo1beVpXlq8cxl5JmrX10tSz0MUD2Y1g978gDeVdSS4mi2tqFjPb1asZavJR82TtNGI2NYMzWho/blUGeHWqurUlUlzk8mhh13/AIH9iPkUy5Fz3MfBw6Nq9Cl0I3UuhHO+/wB8cv0UPlVhYLvB8cs0MuoID37dl+S3SDUV5+kftr5NNr1P4NttXHYe23MOULy3JZGq+wf5kfTb3hR1juq+whrI+m3vC5rDVfYxNVH0294UGySi+w2+pZY+23MeUKBJJlZwdMGh1yBl5VojyN9NZQ+6ob0h3rpaNOqG9Id6YA06oHOF3BziNvlB5QpHMMZhlAnjJIsM55FKHWii84W0/gmnVcfTb3haz5ZsZdVs6be8Ic4DTqxnTb3oOBgatnSb3hDuUaGFp2mF4DgcnOj5EZPgX3cv8HDowvQpdCN1LoRztv8AnHT9FD5VYWBvB8ct0MuoIDpPCFCyZuLICRfGyGxuqqtGNVasicJuDyiO9WKbou+5Z9wo+/5LN5mJ6sU/Rd9ybhR9/wAjeZi+rFN0Xfcm4Uff8jeZi+q9N0Xfcm4Uff8AI3mYh3M03Rd9ybhR9/yN5mYSblKYnK133FdVjSRON5VisIxG5Gl6LvuK7uVIlv1YX1Rpei77im5Uhv8AW/xC+qNL0XfcU3KkN/rCeqVL0X/cU3KkN/rGD9yFKRYtf9xXVZ0k8lda5qVYOEnwY2NxFH0X/cVPd4GDdoC+o9H0X/cU3eBzdoB6kUfRf9xTd4DdoCepFH0X/cU3eB3doB6kUfRf9xTd4DdoFgpKdsbGxsFmtAaB+gVySSwi5JJYRzRv+cdP0UPlXTp57BO9hxmOc05rtJabdoQGzwvUfPl8R+1AHC9R1ibxH7UAcL1Hz5fEftQBwvUdYl8R+1AHC9R8+XxH7UAcL1Hz5vEftQBwvUfPm8R+1AHC9R8+XxH7UAcL1Hz5fEftQBwvUfPl8R+1AHC9R1iXxH7UAcL1HWJfEftQBwvUdYl8R+1AHC9R8+XxH7UAcL1Hz5fEftQBwvUdYm8R+1AHC9R8+XxH7UAcL1HWJfEftQGtPO95xnuc45ruJcbdpQH/2Q==;" vertex="1" parent="7">
                    <mxGeometry x="500" y="90" width="250" height="250" as="geometry"/>
                </mxCell>
                <mxCell id="14" value="&lt;div style=&quot;text-align: left;&quot;&gt;&lt;span style=&quot;background-color: initial;&quot;&gt;You got it!&lt;/span&gt;&lt;/div&gt;&lt;div style=&quot;text-align: left;&quot;&gt;or&lt;/div&gt;&lt;div style=&quot;text-align: left;&quot;&gt;&lt;span style=&quot;background-color: initial;&quot;&gt;Sorry, that's incorrect&lt;/span&gt;&lt;/div&gt;" style="text;html=1;align=center;verticalAlign=middle;resizable=0;points=[];autosize=1;strokeColor=none;fillColor=none;fontSize=25;fontColor=none;" vertex="1" parent="7">
                    <mxGeometry x="10" y="320" width="260" height="100" as="geometry"/>
                </mxCell>
                <mxCell id="16" value="Calculate" style="rounded=1;whiteSpace=wrap;html=1;fontSize=25;labelBackgroundColor=none;fillColor=#eeeeee;strokeColor=#36393d;fontColor=#000000;" vertex="1" parent="7">
                    <mxGeometry x="20" y="250" width="140" height="50" as="geometry"/>
                </mxCell>
            </root>
        </mxGraphModel>
    </diagram>
</mxfile>